{"title":"Pan {2015} BR-RiP XVID AC3-MURD3R","uid":12988403,"size":1564776018,"categoryP":"video","categoryS":"movies","magnet":"?xt=urn:btih:5931e30e79bacd6d69689e1f1e28b9dd5aefe99c&amp;dn=Pan+%7B2015%7D+BR-RiP+XVID+AC3-MURD3R&amp;tr=udp%3A%2F%2Ftracker.leechers-paradise.org%3A6969&amp;tr=udp%3A%2F%2Fzer0day.ch%3A1337&amp;tr=udp%3A%2F%2Fopen.demonii.com%3A1337&amp;tr=udp%3A%2F%2Ftracker.coppersurfer.tk%3A6969&amp;tr=udp%3A%2F%2Fexodus.desync.com%3A6969","seeders":0,"leechers":0,"uploader":"SaM","files":9,"time":1450104135,"description":"http://www.imdb.com/title/tt3332064/\r\n\r\nPan {2015} BR-RiP XVID AC3-MURD3R\r\n\r\nSource : SPARKS..;)TY\r\nFormat : AVI\r\nFormat/Info : Audio Video Interleave\r\nFile size : 1.46 GiB\r\nDuration : 1h 51mn\r\nOverall bit rate : 1 869 Kbps\r\nWriting library : VirtualDub build 35491/release\r\n\r\n\r\nVideo\r\nID : 0\r\nFormat : MPEG-4 Visual\r\nFormat profile : Advanced   \r\nFormat settings, BVOP : 2\r\nFormat settings, QPel : No\r\nFormat settings, GMC : No warppoints\r\nFormat settings, Matrix : Default (H.263)\r\nCodec ID : XVID\r\nCodec ID/Hint : XviD\r\nDuration : 1h 51mn\r\nBit rate : 1 730 Kbps\r\nWidth : 720 pixels\r\nHeight : 300 pixels\r\nDisplay aspect ratio : 2.40:1\r\nFrame rate : 23.976 fps\r\nColor space : YUV\r\nChroma subsampling : 4:2:0\r\nBit depth : 8 bits\r\nScan type : Progressive\r\nCompression mode : Lossy\r\nBits/(Pixel*Frame) : 0.334\r\nStream size : 1.35 GiB (93%)\r\nWriting library : XviD 67\r\n\r\nAudio\r\nID : 1\r\nFormat : AC-3\r\nFormat/Info : Audio Coding 3\r\nMode extension : CM (complete main)\r\nFormat settings, Endianness : Big\r\nCodec ID : 2000\r\nDuration : 1h 51mn\r\nBit rate mode : Constant\r\nBit rate : 128 Kbps\r\nChannel(s) : 2 channels\r\nChannel positions : Front: L R\r\nSampling rate : 48.0 KHz\r\nCompression mode : Lossy\r\nStream size : 102 MiB (7%)\r\nAlignment : Aligned on interleaves\r\nInterleave, duration : 32 ms (0.77 video frame)\r\n \nhttp://extraimago.com/image/PaZ \nhttp://extraimago.com/image/PaK \nhttp://extraimago.com/image/PaJ \nhttp://extraimago.com/image/Pa0 \nhttp://extraimago.com/image/Paz \nhttp://extraimago.com/image/PaU","torrent":{"xt":"urn:btih:5931e30e79bacd6d69689e1f1e28b9dd5aefe99c","amp;dn":"Pan+%7B2015%7D+BR-RiP+XVID+AC3-MURD3R","amp;tr":["udp%3A%2F%2Ftracker.leechers-paradise.org%3A6969","udp%3A%2F%2Fzer0day.ch%3A1337","udp%3A%2F%2Fopen.demonii.com%3A1337","udp%3A%2F%2Ftracker.coppersurfer.tk%3A6969","udp%3A%2F%2Fexodus.desync.com%3A6969"],"infoHash":"5931e30e79bacd6d69689e1f1e28b9dd5aefe99c","infoHashBuffer":{"type":"Buffer","data":[89,49,227,14,121,186,205,109,105,104,158,31,30,40,185,221,90,239,233,156]},"announce":[],"urlList":[]}}